<svg width="17" height="18" viewBox="0 0 17 18" fill="none" xmlns="http://www.w3.org/2000/svg">
<g clip-path="url(#clip0_155_200)">
<path fill-rule="evenodd" clip-rule="evenodd" d="M1.03698 9.05217C1.03698 10.9302 1.78302 12.7313 3.11099 14.0593C4.43895 15.3872 6.24006 16.1333 8.11809 16.1333C9.99612 16.1333 11.7972 15.3872 13.1252 14.0593C14.4532 12.7313 15.1992 10.9302 15.1992 9.05217C15.1992 7.17415 14.4532 5.37304 13.1252 4.04507C11.7972 2.7171 9.99612 1.97106 8.11809 1.97106C6.24006 1.97106 4.43895 2.7171 3.11099 4.04507C1.78302 5.37304 1.03698 7.17415 1.03698 9.05217ZM16.2108 9.05217C16.2108 11.1985 15.3582 13.2569 13.8405 14.7746C12.3228 16.2923 10.2644 17.1449 8.11809 17.1449C5.97177 17.1449 3.91336 16.2923 2.39569 14.7746C0.878012 13.2569 0.0253906 11.1985 0.0253906 9.05217C0.0253906 6.90586 0.878012 4.84745 2.39569 3.32977C3.91336 1.81209 5.97177 0.959473 8.11809 0.959473C10.2644 0.959473 12.3228 1.81209 13.8405 3.32977C15.3582 4.84745 16.2108 6.90586 16.2108 9.05217ZM8.62389 5.51162C8.62389 5.37747 8.5706 5.24882 8.47574 5.15397C8.38089 5.05911 8.25224 5.00582 8.11809 5.00582C7.98395 5.00582 7.8553 5.05911 7.76044 5.15397C7.66559 5.24882 7.6123 5.37747 7.6123 5.51162V11.3717L5.44143 9.19987C5.34646 9.10489 5.21764 9.05153 5.08333 9.05153C4.94901 9.05153 4.8202 9.10489 4.72523 9.19987C4.63025 9.29484 4.5769 9.42365 4.5769 9.55797C4.5769 9.69228 4.63025 9.82109 4.72523 9.91607L7.75999 12.9508C7.80697 12.9979 7.86279 13.0353 7.92424 13.0608C7.98569 13.0863 8.05156 13.0994 8.11809 13.0994C8.18462 13.0994 8.2505 13.0863 8.31194 13.0608C8.37339 13.0353 8.42921 12.9979 8.47619 12.9508L11.511 9.91607C11.6059 9.82109 11.6593 9.69228 11.6593 9.55797C11.6593 9.42365 11.6059 9.29484 11.511 9.19987C11.416 9.10489 11.2872 9.05153 11.1529 9.05153C11.0185 9.05153 10.8897 9.10489 10.7948 9.19987L8.62389 11.3717V5.51162Z" fill="white"/>
</g>
<defs>
<clipPath id="clip0_155_200">
<rect width="16.1854" height="16.1854" fill="white" transform="translate(0.0253906 0.959961)"/>
</clipPath>
</defs>
</svg>
