<svg width="25" height="25" viewBox="0 0 25 25" fill="none" xmlns="http://www.w3.org/2000/svg">
<path fill-rule="evenodd" clip-rule="evenodd" d="M3.43847 0.845309C3.70092 0.583251 4.01607 0.379961 4.36304 0.248913C4.71 0.117865 5.08085 0.0620502 5.45101 0.0851678C5.82118 0.108285 6.18221 0.209807 6.51017 0.383006C6.83813 0.556205 7.12554 0.797125 7.35335 1.0898L10.0458 4.54869C10.5392 5.18317 10.7132 6.00965 10.5182 6.78962L9.69777 10.0745C9.65535 10.2447 9.65764 10.4229 9.70443 10.5919C9.75121 10.7609 9.84089 10.9149 9.96477 11.039L13.6501 14.7244C13.7744 14.8485 13.9287 14.9383 14.098 14.9851C14.2672 15.0319 14.4458 15.0341 14.6161 14.9914L17.8995 14.1709C18.2844 14.0747 18.6862 14.0672 19.0744 14.149C19.4626 14.2309 19.8272 14.3999 20.1404 14.6434L23.5993 17.3343C24.8428 18.3018 24.9568 20.1392 23.8438 21.2507L22.2929 22.8016C21.1829 23.9116 19.524 24.3991 17.9775 23.8546C14.0194 22.4619 10.4257 20.196 7.46284 17.2248C4.49187 14.2624 2.22592 10.6692 0.833051 6.71162C0.290068 5.16667 0.777553 3.50623 1.88752 2.39626L3.43847 0.845309Z" fill="black"/>
</svg>
