<svg width="25" height="19" viewBox="0 0 25 19" fill="none" xmlns="http://www.w3.org/2000/svg">
<path d="M1.71903 0.603817C1.21803 0.603817 0.822266 0.999369 0.822266 1.50059C0.822266 2.00159 1.21782 2.39735 1.71903 2.39735H4.2508L6.6245 11.3909C6.83543 12.2085 7.54757 12.7624 8.3915 12.7624H20.7344C21.552 12.7624 22.2377 12.2085 22.4751 11.4437L24.8223 3.32066H22.9233L20.7342 10.9425L8.39127 10.9423L6.01757 1.94879C5.80664 1.13117 5.0945 0.577329 4.25057 0.577329L1.7188 0.577148L1.71903 0.603817ZM19.6267 13.316C18.1235 13.316 16.9103 14.5554 16.9103 16.0323C16.9103 17.5093 18.1498 18.7487 19.6267 18.7487C21.1037 18.7487 22.3431 17.5093 22.3431 16.0323C22.3431 14.5556 21.1037 13.316 19.6267 13.316ZM10.396 13.316C8.89273 13.316 7.67957 14.5554 7.67957 16.0323C7.67957 17.5093 8.91903 18.7487 10.396 18.7487C11.8729 18.7487 13.1123 17.5093 13.1123 16.0323C13.1123 14.5556 11.8992 13.316 10.396 13.316ZM10.396 15.1095C10.897 15.1095 11.2927 15.505 11.2927 16.0062C11.2927 16.5072 10.8972 16.903 10.396 16.903C9.89496 16.903 9.49919 16.5074 9.49919 16.0062C9.49919 15.505 9.89474 15.1095 10.396 15.1095ZM19.6267 15.1095C20.1277 15.1095 20.5235 15.505 20.5235 16.0062C20.5235 16.5072 20.1279 16.903 19.6267 16.903C19.1257 16.903 18.73 16.5074 18.73 16.0062C18.73 15.505 19.0992 15.1095 19.6267 15.1095Z" fill="#444150"/>
</svg>
