<svg width="25" height="19" viewBox="0 0 25 19" fill="none" xmlns="http://www.w3.org/2000/svg">
<path d="M0.486133 3.12693C0.63736 2.4643 1.00912 1.87265 1.54052 1.4489C2.07191 1.02514 2.73146 0.794388 3.41113 0.794434H21.4111C22.0908 0.794388 22.7504 1.02514 23.2817 1.4489C23.8131 1.87265 24.1849 2.4643 24.3361 3.12693L12.4111 10.4154L0.486133 3.12693ZM0.411133 4.83993V15.4959L9.11563 10.1589L0.411133 4.83993ZM10.5526 11.0394L0.697633 17.0799C0.941123 17.5934 1.32542 18.0271 1.80581 18.3306C2.28619 18.6341 2.84289 18.795 3.41113 18.7944H21.4111C21.9793 18.7946 22.5358 18.6334 23.0159 18.3296C23.496 18.0258 23.88 17.5919 24.1231 17.0784L14.2681 11.0379L12.4111 12.1734L10.5526 11.0379V11.0394ZM15.7066 10.1604L24.4111 15.4959V4.83993L15.7066 10.1589V10.1604Z" fill="black"/>
</svg>
