<svg width="25" height="33" viewBox="0 0 25 33" fill="none" xmlns="http://www.w3.org/2000/svg">
<path d="M12.2119 32.5391C12.2119 32.5391 24.2119 21.1671 24.2119 12.5391C24.2119 9.35646 22.9476 6.30422 20.6972 4.05378C18.4468 1.80334 15.3945 0.539062 12.2119 0.539062C9.02932 0.539062 5.97707 1.80334 3.72663 4.05378C1.4762 6.30422 0.211914 9.35646 0.211914 12.5391C0.211914 21.1671 12.2119 32.5391 12.2119 32.5391ZM12.2119 18.5391C10.6206 18.5391 9.09449 17.9069 7.96927 16.7817C6.84406 15.6565 6.21191 14.1304 6.21191 12.5391C6.21191 10.9478 6.84406 9.42164 7.96927 8.29642C9.09449 7.1712 10.6206 6.53906 12.2119 6.53906C13.8032 6.53906 15.3293 7.1712 16.4546 8.29642C17.5798 9.42164 18.2119 10.9478 18.2119 12.5391C18.2119 14.1304 17.5798 15.6565 16.4546 16.7817C15.3293 17.9069 13.8032 18.5391 12.2119 18.5391Z" fill="black"/>
</svg>
